# AST/ASF file generated using VICON BodyLanguage
# -----------------------------------------------
:version 1.10
:name VICON
:units
  mass 1.0
  length 0.45
  angle deg
:documentation
   .ast/.asf automatically generated from VICON data using
   VICON BodyBuilder and BodyLanguage model FoxedUp or BRILLIANT.MOD
:root
   order TX TY TZ RX RY RZ
   axis XYZ
   position 0 0 0  
   orientation 0 0 0 
:bonedata
  begin
     id 1 
     name lhipjoint
     direction 0.635376 -0.686425 0.353719 
     length 2.47244 
     axis 0 0 0  XYZ
  end
  begin
     id 2 
     name lfemur
     direction 0.34202 -0.939693 0  
     length 7.25268  
     axis 0 0 20  XYZ
    dof rx ry rz
    limits (-160.0 20.0)
           (-70.0 70.0)
           (-60.0 70.0)
  end
  begin
     id 3 
     name ltibia
     direction 0.34202 -0.939693 0   
     length 7.6767   
     axis 0 0 20   XYZ
    dof rx
    limits (-10.0 170.0)
  end
  begin
     id 4 
     name lfoot
     direction 0.0803374 -0.220725 0.972022   
     length 2.22945   
     axis -90 7.62852e-016 20   XYZ
    dof rx rz
    limits (-45.0 90.0)
           (-70.0 20.0)
  end
  begin
     id 5 
     name ltoes
     direction 1.53579e-011 -4.21994e-011 1   
     length 1.11848   
     axis -90 7.62852e-016 20   XYZ
    dof rx
    limits (-90.0 20.0)
  end
  begin
     id 6 
     name rhipjoint
     direction -0.664428 -0.664335 0.342336   
     length 2.55466  
     axis 0 0 0  XYZ 
  end
  begin
     id 7 
     name rfemur
     direction -0.34202 -0.939693 0   
     length 6.83172   
     axis 0 0 -20   XYZ
    dof rx ry rz
    limits (-160.0 20.0)
           (-70.0 70.0)
           (-70.0 60.0)
  end
  begin
     id 8 
     name rtibia
     direction -0.34202 -0.939693 0   
     length 7.62692   
     axis 0 0 -20   XYZ
    dof rx
    limits (-10.0 170.0)
 end
 begin
     id 9 
     name rfoot
     direction -0.0949276 -0.260811 0.960711   
     length 2.19684  
     axis -90 -7.62852e-016 -20   XYZ
    dof rx rz
    limits (-45.0 90.0)
           (-20.0 70.0)
  end
  begin
     id 10 
     name rtoes
     direction -1.53543e-011 -4.2183e-011 1   
     length 1.09848   
     axis -90 -7.62852e-016 -20   XYZ
    dof rx
    limits (-90.0 20.0)
  end
  begin
     id 11 
     name lowerback
     direction 0.0118782 0.999815 -0.0151555   
     length 2.15772   
     axis 0 0 0   XYZ
    dof rx ry rz
    limits (-20.0 45.0)
           (-30.0 30.0)
           (-30.0 30.0)
  end
  begin
     id 12 
     name upperback
     direction 0.00130825 0.999065 0.0432113   
     length 2.14863   
     axis 0 0 0   XYZ
    dof rx ry rz
    limits (-20.0 45.0)
           (-30.0 30.0)
           (-30.0 30.0)
  end
  begin
     id 13 
     name thorax
     direction -0.00347005 0.998773 0.0494011   
     length 2.14936   
     axis 0 0 0   XYZ
    dof rx ry rz
    limits (-20.0 45.0)
           (-30.0 30.0)
           (-30.0 30.0)
  end
  begin
     id 14 
     name lowerneck
     direction -0.0262159 0.99424 0.103921   
     length 1.69373   
     axis 0 0 0   XYZ
    dof rx ry rz
    limits (-20.0 45.0)
           (-30.0 30.0)
           (-30.0 30.0)
  end
  begin
     id 15 
     name upperneck
     direction 0.0353511 0.977394 -0.20845   
     length 1.70857   
     axis 0 0 0   XYZ
    dof rx ry rz
    limits (-20.0 45.0)
           (-30.0 30.0)
           (-30.0 30.0)
  end
  begin
     id 16
     name head
     direction 0.0139214 0.996594 -0.0812836  
     length 1.72777  
     axis 0 0 0   XYZ
    dof rx ry rz
    limits (-20.0 45.0)
           (-30.0 30.0)
           (-30.0 30.0)
  end
  begin
     id 17 
     name lclavicle
     direction 0.841247 0.537205 -0.0609508  
     length 3.55371  
     axis 0 0 0   XYZ
    dof ry rz
    limits (-20.0 10.0)
           (0.0 20.0)
  end
  begin
     id 18 
     name lhumerus
     direction 1 -4.48964e-011 1.60116e-018   
     length 4.91377   
     axis -180 -30 -90   XYZ
    dof rx ry rz
    limits (-60.0 90.0)
           (-90.0 90.0)
           (-90.0 90.0)
  end
  begin
     id 19
     name lradius
     direction 1 -4.48989e-011 -8.93847e-027   
     length 3.00291   
     axis -180 -30 -90   XYZ
    dof rx
    limits (-10.0 170.0)
  end
  begin
     id 20
     name lwrist
     direction 1 -4.48932e-011 -7.31504e-027   
     length 1.50145   
     axis 5.74121e-015 90 90   XYZ
    dof ry
    limits (-180.0 0.0)
 end
  begin
     id 21 
     name lhand
     direction 1 -4.48971e-011 -1.46301e-026   
     length 0.450922   
     axis 9.33524e-015 90 90   XYZ
    dof rx rz
    limits (-90.0 90.0)
           (-45.0 45.0)
  end
  begin
     id 22 
     name lfingers
     direction 1 -4.49039e-011 -2.92602e-026   
     length 0.363545   
     axis 1.86705e-014 90 90   XYZ
    dof rx
    limits (0.0 90.0)
  end
  begin
     id 23
     name lthumb
     direction 0.707107 -6.34941e-011 0.707107   
     length 0.52198   
     axis -90 45 2.85299e-015   XYZ
    dof rx rz
    limits (-45.0 45.0)
           (-45.0 45.0)
  end
  begin
     id 24 
     name rclavicle
     direction -0.825079 0.56158 -0.0622297   
     length 3.39909  
     axis 0 0 0   XYZ 
    dof ry rz
    limits (-10.0 20.0)
           (-20.0 0.0)
  end
  begin
     id 25 
     name rhumerus
     direction -1 -4.48965e-011 1.61691e-027  
     length 4.86725   
     axis -180 30 90   XYZ
    dof rx ry rz
    limits (-90.0 60.0)
           (-90.0 90.0)
           (-90.0 90.0)
  end
  begin
     id 26 
     name rradius
     direction -1 -4.48964e-011 -2.25776e-027   
     length 3.17144   
     axis -180 30 90   XYZ
    dof rx
    limits (-10.0 170.0)
  end
  begin
     id 27 
     name rwrist
     direction -1 -4.48961e-011 -7.31504e-027   
     length 1.58572   
     axis 5.74121e-015 -90 -90   XYZ
    dof ry
    limits (-180.0 0.0)
  end
  begin
     id 28
     name rhand
     direction -1 -4.49013e-011 -1.46301e-026   
     length 0.419368   
     axis 9.33524e-015 -90 -90   XYZ
    dof rx rz
    limits (-90.0 90.0)
           (-45.0 45.0)
  end
  begin
     id 29
     name rfingers
     direction -1 -4.489e-011 -2.92602e-026   
     length 0.338105   
     axis 1.86705e-014 -90 -90   XYZ
    dof rx
    limits (0.0 90.0)
  end
  begin
     id 30
     name rthumb
     direction -0.707107 -6.35022e-011 0.707107   
     length 0.485453   
     axis -90 -45 -2.85299e-015   XYZ
    dof rx rz
    limits (-45.0 45.0)
           (-45.0 45.0)
  end
:hierarchy
  begin
    root lhipjoint rhipjoint lowerback
    lhipjoint lfemur
    lfemur ltibia
    ltibia lfoot
    lfoot ltoes
    rhipjoint rfemur
    rfemur rtibia
    rtibia rfoot
    rfoot rtoes
    lowerback upperback
    upperback thorax
    thorax lowerneck lclavicle rclavicle
    lowerneck upperneck
    upperneck head
    lclavicle lhumerus
    lhumerus lradius
    lradius lwrist
    lwrist lhand lthumb
    lhand lfingers
    rclavicle rhumerus
    rhumerus rradius
    rradius rwrist
    rwrist rhand rthumb
    rhand rfingers
  end

#!OML:ASF H:\Swim 2\Project 1\Capture day 1\Session 1\male.ASF
:FULLY-SPECIFIED
:DEGREES
440
root -0.0016601 13.7425 9.37424 58.798 -11.5967 181.325
lowerback 43.7933 1.77058 -0.229317
upperback 6.02005 0.0881567 0.507896
thorax -13.9489 -0.924814 0.87801
lowerneck -9.31879 0.384543 -5.90177
upperneck 29.6896 2.34329 -7.92595
head 11.2609 -1.61792 -1.82194
rclavicle 2.04748e-014 -3.90115e-015
rhumerus -282.978 -6.04553 -54.8414
rradius 16.7553
rwrist 378.058
rhand 1.0458 -17.9531
rfingers 7.12502
rthumb 26.5917 -46.1061
lclavicle 2.04748e-014 -3.90115e-015
lhumerus -428.734 -12.943 56.3794
lradius 18.346
lwrist -336.42
lhand 24.2639 16.7809
lfingers 7.12502
lthumb 48.4845 38.7645
rfemur 43.2262 5.74253 28.0177
rtibia 16.8033
rfoot 36.3286 -1.7589
rtoes 16.3437
lfemur 34.2846 -8.15015 -27.9697
ltibia 29.9519
lfoot 10.061 8.68608
ltoes 24.3468
441
root -0.0266924 13.7427 9.37023 58.695 -11.2061 181.414
lowerback 43.9003 1.64881 -0.0143062
upperback 6.01853 0.0308471 0.544062
thorax -13.9805 -0.963117 0.835471
lowerneck -9.56019 0.0860496 -6.93602
upperneck 30.2448 1.62537 -5.7738
head 11.477 -1.80327 -0.948965
rclavicle 1.51076e-014 -1.48095e-014
rhumerus -281.86 -6.34549 -53.5359
rradius 16.7741
rwrist 380.532
rhand 1.54875 -17.2044
rfingers 7.12502
rthumb 27.073 -45.2835
lclavicle 1.51076e-014 -1.48095e-014
lhumerus -428.655 -11.9383 56.5119
lradius 17.5161
lwrist -337.858
lhand 23.9611 16.0728
lfingers 7.12502
lthumb 48.2056 38.1891
rfemur 42.5291 5.99661 27.865
rtibia 16.3541
rfoot 35.4436 -2.41262
rtoes 16.9384
lfemur 35.2447 -7.9277 -28.0056
ltibia 29.9339
lfoot 10.492 7.43681
ltoes 24.5621
442
root -0.0493184 13.7429 9.36834 58.6051 -10.8302 181.532
lowerback 44.0187 1.54717 0.10964
upperback 6.00512 -0.0313372 0.643043
thorax -14.0306 -0.998539 0.911977
lowerneck -9.98788 -0.165986 -8.33674
upperneck 31.0556 0.920764 -3.20373
head 11.856 -2.00099 0.139534
rclavicle -3.08116e-014 -1.24986e-014
rhumerus -280.7 -6.64505 -52.1336
rradius 16.799
rwrist 383.291
rhand 1.98302 -16.3936
rfingers 7.12502
rthumb 27.4883 -44.4074
lclavicle -3.08116e-014 -1.24986e-014
lhumerus -428.593 -10.8034 56.5184
lradius 16.6746
lwrist -339.335
lhand 23.615 15.4544
lfingers 7.12502
lthumb 47.8866 37.72
rfemur 41.902 6.32101 27.7605
rtibia 15.7615
rfoot 34.6398 -3.18858
rtoes 17.5593
lfemur 36.1497 -7.64954 -27.9796
ltibia 29.8892
lfoot 10.9781 6.07491
ltoes 24.5794
443
root -0.0695534 13.7432 9.37004 58.5906 -10.4564 181.649
lowerback 44.0799 1.46544 0.15226
upperback 5.97882 -0.0879778 0.809389
thorax -14.0799 -1.02445 1.10151
lowerneck -10.4784 -0.37872 -9.81302
upperneck 31.904 0.272469 -0.704099
head 12.2984 -2.20295 1.23724
rclavicle 4.57205e-015 -2.93704e-014
rhumerus -279.504 -6.9544 -50.6951
rradius 16.8522
rwrist 386.293
rhand 2.30639 -15.4895
rfingers 7.12502
rthumb 27.7976 -43.4537
lclavicle 4.57205e-015 -2.93704e-014
lhumerus -428.548 -9.50717 56.372
lradius 15.8237
lwrist -340.812
lhand 23.2188 14.9805
lfingers 7.12502
lthumb 47.521 37.4137
rfemur 41.2906 6.72588 27.7076
rtibia 15.0241
rfoot 34.0944 -4.09825
rtoes 18.009
lfemur 36.9221 -7.3276 -27.8737
ltibia 29.8366
lfoot 11.6103 4.65606
ltoes 24.3454
444
root -0.0882713 13.7441 9.37397 58.6302 -10.0806 181.755
lowerback 44.0957 1.40074 0.133775
upperback 5.9518 -0.139821 1.03168
thorax -14.1171 -1.04428 1.38166
lowerneck -10.8886 -0.565328 -11.0497
upperneck 32.551 -0.272616 1.27138
head 12.6724 -2.38736 2.13074
rclavicle 1.37161e-014 -8.22596e-014
rhumerus -278.283 -7.29096 -49.2403
rradius 16.9463
rwrist 389.298
rhand 2.49678 -14.5173
rfingers 7.12502
rthumb 27.9796 -42.452
lclavicle 1.37161e-014 -8.22596e-014
lhumerus -428.534 -8.09312 56.1245
lradius 14.988
lwrist -342.197
lhand 22.7185 14.6615
lfingers 7.12502
lthumb 47.0586 37.3019
rfemur 40.7331 7.21228 27.7166
rtibia 14.1359
rfoot 33.7404 -5.11425
rtoes 18.2427
lfemur 37.5726 -6.96482 -27.6972
ltibia 29.7898
lfoot 12.377 3.30801
ltoes 24.1034
445
root -0.105348 13.746 9.38065 58.739 -9.68563 181.848
lowerback 44.0359 1.33948 0.0922415
upperback 5.93217 -0.189376 1.2893
thorax -14.1232 -1.06089 1.71054
lowerneck -11.1648 -0.739686 -11.8738
upperneck 32.9116 -0.700806 2.54252
head 12.9136 -2.53908 2.71073
rclavicle -1.0138e-014 -8.54774e-015
rhumerus -277.051 -7.68408 -47.8649
rradius 17.0763
rwrist 392.149
rhand 2.50346 -13.5031
rfingers 7.12502
rthumb 27.986 -41.4367
lclavicle -1.0138e-014 -8.54774e-015
lhumerus -428.556 -6.65853 55.8624
lradius 14.2024
lwrist -343.4
lhand 22.202 14.4915
lfingers 7.12502
lthumb 46.5806 37.3403
rfemur 40.2394 7.76826 27.8016
rtibia 13.0692
rfoot 33.5694 -6.22139
rtoes 18.1592
lfemur 38.0733 -6.58016 -27.4433
ltibia 29.7656
lfoot 13.2578 2.11891
ltoes 24.025
446
root -0.120531 13.7497 9.38894 58.8781 -9.28104 181.959
lowerback 43.9286 1.27338 0.0370595
upperback 5.92056 -0.249747 1.55365
thorax -14.1053 -1.08153 2.05824
lowerneck -11.223 -0.908548 -12.1472
upperneck 32.9141 -1.00878 2.97556
head 12.9558 -2.64789 2.8865
rclavicle 2.5842e-014 -9.74045e-015
rhumerus -275.84 -8.14428 -46.6244
rradius 17.2267
rwrist 394.677
rhand 2.29769 -12.4752
rfingers 7.12502
rthumb 27.7893 -40.4408
lclavicle 2.5842e-014 -9.74045e-015
lhumerus -428.623 -5.3124 55.6744
lradius 13.495
lwrist -344.376
lhand 21.6892 14.417
lfingers 7.12502
lthumb 46.1053 37.4675
rfemur 39.878 8.37088 27.954
rtibia 11.793
rfoot 33.4193 -7.43436
rtoes 17.9052
lfemur 38.4511 -6.18838 -27.1433
ltibia 29.7726
lfoot 14.2368 1.09198
ltoes 23.965
447
root -0.133573 13.7556 9.39804 59.0118 -8.88316 182.113
lowerback 43.7938 1.20118 -0.0398179
upperback 5.92962 -0.33408 1.80567
thorax -14.0535 -1.11412 2.41427
lowerneck -11.23 -1.06473 -12.1675
upperneck 32.8004 -1.2649 3.10873
head 12.9331 -2.73042 2.90736
rclavicle 7.05686e-015 -5.13734e-014
rhumerus -274.653 -8.68024 -45.5527
rradius 17.3849
rwrist 396.786
rhand 1.90986 -11.4548
rfingers 7.12502
rthumb 27.4184 -39.4797
lclavicle 7.05686e-015 -5.13734e-014
lhumerus -428.754 -4.17987 55.7717
lradius 12.9205
lwrist -344.996
lhand 21.1572 14.4021
lfingers 7.12502
lthumb 45.6115 37.6567
rfemur 39.7297 9.02374 28.1789
rtibia 10.2587
rfoot 33.1986 -8.84025
rtoes 17.6258
lfemur 38.733 -5.80139 -26.834
ltibia 29.8238
lfoot 15.323 0.136088
ltoes 23.53
448
root -0.144729 13.7637 9.40531 59.0778 -8.50013 182.325
lowerback 43.702 1.1196 -0.128028
upperback 5.94913 -0.4473 2.02687
thorax -14.0006 -1.1623 2.75666
lowerneck -11.2037 -1.19994 -12.1283
upperneck 32.68 -1.5229 3.27568
head 12.8994 -2.80366 2.93075
rclavicle -3.97569e-016 4.39873e-014
rhumerus -273.534 -9.27887 -44.6352
rradius 17.5418
rwrist 398.452
rhand 1.38888 -10.4459
rfingers 7.12502
rthumb 26.92 -38.5487
lclavicle -3.97569e-016 4.39873e-014
lhumerus -428.966 -3.35418 56.2728
lradius 12.5028
lwrist -345.254
lhand 20.5386 14.4107
lfingers 7.12502
lthumb 45.0365 37.8959
rfemur 39.8081 8.98821 27.8671
rtibia 8.39743
rfoot 33.1593 -9.58531
rtoes 17.4731
lfemur 38.9783 -5.42244 -26.5462
ltibia 29.9313
lfoot 16.3847 -0.696369
ltoes 22.932
